<svg xmlns="http://www.w3.org/2000/svg" xmlns:xlink="http://www.w3.org/1999/xlink" width="500" height="340" x="0" y="0" enable-background="new 0 0 500 340" version="1.1" viewBox="0 0 500 340" xml:space="preserve"><g id="Layer_2"><g><path fill="#4C4C4C" d="M40.171,254.348c1.986-0.814,3.854-2.017,5.348-3.515c1.502-1.609,2.824-3.298,3.754-5.409 c0.918-2.002,1.389-4.261,1.389-6.63c0-1.018-0.295-2.142-0.456-3.19c-0.367-1.16-0.801-2.289-1.301-3.289 c-0.515-0.998-1.083-1.95-1.916-2.854c-0.646-0.797-1.521-1.495-2.449-1.987c0.913-0.633,1.58-1.337,2.428-2.128 c0.833-0.896,1.402-1.845,1.901-2.837c0.515-0.998,0.952-2.131,1.324-3.18c0.17-1.15,0.468-2.287,0.468-3.301 c0-2.375-0.471-4.562-1.389-6.672c-0.931-2.1-2.252-3.859-3.759-5.463c-1.492-1.5-3.357-2.891-5.343-3.824 c-2.224-0.924-4.297-1.568-6.674-1.568H5.5v57h28C35.874,255.5,37.95,255.279,40.171,254.348z M16.5,209.5h16.997 c0.656,0,1.489,0.594,2.083,0.865c0.805,0.264,1.356,0.907,1.849,1.409c0.507,0.5,0.942,1.255,1.316,1.958 c0.168,0.59,0.465,1.478,0.465,2.241c0,0.768-0.294,1.524-0.465,2.235c-0.372,0.705-0.809,1.373-1.316,1.875 c-0.493,0.506-1.042,0.819-1.847,1.079c-0.597,0.275-1.43,0.337-2.083,0.337h-17V209.5z M16.5,232.5h16.997 c0.656,0,1.489,0.439,2.083,0.701c0.805,0.389,1.356,0.886,1.849,1.495c0.507,0.502,0.942,1.136,1.316,1.841 c0.168,0.703,0.465,1.476,0.465,2.237c0,0.869-0.294,1.622-0.465,2.325c-0.372,0.697-0.809,1.262-1.316,1.762 c-0.493,0.498-1.042,0.921-1.847,1.192c-0.597,0.375-1.43,0.446-2.083,0.446h-17V232.5z"/><path fill="#4C4C4C" d="M69.5,244.5h24v11h11v-33.738c0-3.141-0.869-6.17-1.952-8.877c-1.306-2.811-2.908-5.227-4.907-7.326 c-2.208-2.002-4.641-3.656-7.266-4.852c-2.801-1.189-5.941-1.844-8.982-1.844c-3.235,0-6.166,0.654-8.996,1.844 c-2.588,1.195-5.217,2.85-7.208,4.852c-1.994,2.1-3.746,4.516-4.83,7.326c-1.286,2.707-1.859,5.736-1.859,8.877V255.5h11V244.5z M69.5,221.762c0-1.613,0.59-3.074,1.143-4.488c0.531-1.412,1.525-2.617,2.528-3.615c0.999-0.998,2.369-1.877,3.779-2.426 c1.406-0.646,2.903-0.922,4.402-0.922c1.513,0,2.982,0.275,4.392,0.922c1.407,0.549,2.729,1.428,3.733,2.426 c0.999,0.998,2.224,2.203,2.756,3.615c0.551,1.414,1.267,2.875,1.267,4.488V232.5h-24V221.762z"/><polygon fill="#4C4C4C" points="125.5 218.414 147.5 255.5 159.5 255.5 159.5 198.5 148.5 198.5 148.5 236.559 126.357 198.5 113.5 198.5 113.5 255.5 125.5 255.5"/><polygon fill="#4C4C4C" points="182.5 244.535 190.837 232.6 202.987 255.5 216.155 255.5 198.054 222.555 216.155 198.5 202.987 198.5 182.5 227.475 182.5 198.5 170.5 198.5 170.5 255.5 182.5 255.5"/><path fill="#4C4C4C" d="M266.5,255.5v-33.738c0-3.141-0.583-6.17-1.885-8.877c-1.305-2.811-2.859-5.227-4.855-7.326 c-2.225-2.002-4.639-3.656-7.243-4.852c-2.808-1.189-5.739-1.844-8.98-1.844c-3.248,0-6.174,0.654-8.985,1.844 c-2.601,1.195-5.007,2.85-7.219,4.852c-1.999,2.1-3.098,4.516-4.407,7.326c-1.307,2.707-1.426,5.736-1.426,8.877V255.5h11v-11h22 v11H266.5z M254.5,232.5h-22v-10.738c0-1.613,0.181-3.074,0.713-4.488c0.548-1.412,1.313-2.617,2.314-3.615 c0.999-0.998,2.264-1.877,3.67-2.426c1.428-0.646,2.855-0.922,4.362-0.922c1.505,0,2.945,0.275,4.352,0.922 c1.427,0.549,2.737,1.428,3.736,2.426c1.001,0.998,1.624,2.203,2.173,3.615c0.532,1.414,0.68,2.875,0.68,4.488V232.5z"/><polygon fill="#4C4C4C" points="316.5 198.5 270.5 198.5 270.5 209.5 286.5 209.5 286.5 255.5 298.5 255.5 298.5 209.5 316.5 209.5"/><polygon fill="#4C4C4C" points="333.5 232.5 355.5 232.5 355.5 255.5 367.5 255.5 367.5 198.5 355.5 198.5 355.5 221.5 333.5 221.5 333.5 198.5 321.5 198.5 321.5 255.5 333.5 255.5"/><polygon fill="#4C4C4C" points="482.5 198.5 482.5 236.559 461.181 198.5 449.5 198.5 449.5 255.5 460.5 255.5 460.5 218.414 482.323 255.5 494.5 255.5 494.5 198.5"/><path fill="#4C4C4C" d="M374.141,236.176l2.824,7.189c0.081,0.373,3.844,0.42,6.766,0.43c1.029,1.635,2.343,3.104,3.749,4.502 c0.976,0.971,1.976,1.896,3.01,2.674c-0.046,2.922-0.052,6.645,0.332,6.717l7.121,3.256c0.155,0.08,2.892-2.387,4.896-4.5 c1.841,0.295,3.69,0.498,5.583,0.498c1.44,0,2.86-0.057,4.064-0.273c2.232,2.18,4.776,4.883,5.157,4.82l7.191-2.656 c0.385-0.17,0.401-4.229,0.385-7.176c1.426-0.982,2.794-2.139,3.939-3.359c0.918-0.936,1.817-1.893,2.459-2.877 c3.187,0.062,7.406,0.227,7.476-0.154l3.005-6.955c0.291-0.279-2.572-3.164-4.827-5.309c0.403-1.857,0.499-3.635,0.499-5.539 c0-1.346-0.044-2.572-0.124-3.793c2.061-2.088,4.874-4.746,4.815-5.012l-2.832-7.182c-0.065-0.27-3.82-0.436-6.729-0.451 c-1.017-1.629-2.341-3.098-3.745-4.51c-0.98-0.973-1.993-1.908-3.255-2.695c0.253-3.025,0.264-6.609-0.109-6.676l-7.135-3.154 c-0.157-0.188-2.891,2.391-4.897,4.391c-1.833-0.285-3.68-0.49-5.338-0.49c-1.668,0-3.074,0.174-4.32,0.281 c-2.196-2.176-4.989-4.887-5.145-4.826l-7.207,2.666c-0.381,0.166-0.388,4.225-0.375,7.178c-1.414,1.076-2.793,2.111-3.895,3.326 c-0.943,0.945-1.85,1.914-2.707,3.014c-2.978-0.18-7.204-0.236-7.272,0.039l-3.002,6.961c-0.292,0.279,2.568,3.162,4.825,5.312 c-0.4,1.85-0.494,3.723-0.494,5.621c0,1.238,0.045,2.475,0.125,3.688C376.893,233.242,374.081,235.902,374.141,236.176z M391.452,220.35c0.951-2.188,2.312-4.111,4.091-5.766c1.541-1.645,3.463-2.898,5.757-3.848c2.065-0.957,4.439-1.436,7.121-1.436 c2.446,0,4.817,0.479,6.895,1.436c2.296,0.949,4.218,2.203,5.767,3.848c1.756,1.654,2.894,3.578,3.848,5.766 c0.959,2.189,1.451,4.557,1.451,7.113c0,2.451-0.492,4.814-1.451,6.986c-0.954,2.172-2.092,4.086-3.848,5.746 c-1.549,1.66-3.471,2.912-5.767,3.869c-2.077,0.949-4.448,1.428-6.895,1.428c-2.682,0-5.056-0.479-7.121-1.428 c-2.294-0.957-4.216-2.209-5.757-3.869c-1.779-1.66-3.14-3.574-4.091-5.746c-0.946-2.172-1.417-4.535-1.417-6.986 C390.035,224.906,390.506,222.539,391.452,220.35z"/></g><path fill="#4C4C4C" d="M222.98,53.563c5.206,1.965,12.992,0.501,17.664-3.073c-15.218-1.241-14.287-13.112-14.287-13.112 c5.293,4.214,5.201,8.595,14.171,6.202c1.494-0.327,2.865-0.098,3.966,0.399l-1.064,3.422c-0.773,1.166-1.725,2.163-2.786,3.094 c0.029,0,0.055,0.002,0.083,0.006c8.105,0.668,5.751,23.466,5.224,28.437c1.815-0.223,3.706-0.306,5.291-0.306 c1.295,0,2.416,0.033,3.736,0.102c-1.383-14.435-0.111-27.511,2.377-35.654c-1.312-0.967-2.413-2.136-3.716-3.429 c-0.515-0.651-0.996-1.192-1.471-1.838c4.202-8.383,12.066-16.923,22.98-18.134c0,0-12.02,4.483-17.792,23.396 c13.442,10.948,25.457-1.881,28.337-6.956c3.233-5.544,5.659-19.562,0-33.473c0,0-5.336,5.963-15.913,5.544 c-9.523-0.296-32.431,10.751-17.616,29.62c-1.842,3.633-2.834,7.359-2.939,10.308c0,0-1.844-2.925-4.73-4.143 c0,0,0.896-16.275-10.429-19.548c-10.258-2.949-11.086,4.741-23.582,4.033C210.484,28.459,210.484,48.62,222.98,53.563z"/><path fill="#4C4C4C" d="M198.297,124.101c2.578,9.562,9.2,17.944,17.878,24.122c1.076,7.251,7.604,12.925,15.26,12.925 c3.426,0,6.729-1.189,9.217-3.248c3.396,0.628,7.081,0.904,10.579,0.904c4.188,0,8.087-0.429,11.917-1.137 c2.733,2.136,5.858,3.48,9.577,3.48c8.094,0,14.74-6.228,15.292-14.243c10.918-8.206,17.678-20.114,17.678-33.301 c0-2.21-0.33-4.512-0.534-6.685c2.068-1.433,3.517-3.871,3.517-6.714c0-4.482-3.483-8.083-7.888-8.083 c-0.473,0-1.163,0.145-1.411,0.188c-8.498-13.076-24.309-22.23-42.899-23.675c0.013,2.103,0.055,4.122,0.345,6.26 c4.957,0.666,9.729,1.852,9.729,1.852c1.757,0.328,2.361,1.931,1.493,3.398l-0.019,0.034c-0.646,1.582-2.581,2.513-4.362,2.096 c0,0-4.386-1.145-9.048-1.588c-0.155-0.012-0.531-0.188-0.903-0.188h-0.005c-0.538,0-1.048,0.004-1.56-0.004 c-0.022,0-0.047,0.075-0.069,0.073c-0.352-0.003-0.494,0.033-0.838,0.033c-0.088,0-0.409,0.02-0.502,0.021 c-0.028,0-0.057,0.011-0.082,0.013c-0.083,0.003-0.36,0.008-0.446,0.01c-0.035,0.003-0.066,0.005-0.328,0.007 c-0.06,0.003-0.124,0.007-0.187,0.01c-0.041,0.002-0.304,0.006-0.343,0.006c-0.06,0.116-0.135,0.119-0.225,0.125 c-0.241,0.003-0.282,0.008-0.326,0.008c-0.058,0.005-0.117,0.008-0.396,0.014c-0.05,0.005-0.099,0.006-0.148,0.012 c-0.059,0.003-0.318,0.008-0.385,0.013c-0.119,0.011-0.46,0.021-0.579,0.034c-0.023,0-0.083-0.256-0.282-0.256 c-0.085,0.018-0.188-0.117-0.494-0.117h-0.008c-3.897,1-7.354,1.482-7.354,1.482c-1.764,0.307-3.74-0.483-4.619-1.939l-0.034,0.011 c-0.895-1.454-0.109-3.014,1.446-3.343c0,0,3.809-0.932,8.19-1.608c0.315-2.121,0.38-4.268,0.427-6.406 c-5.257,0.622-10.168,1.684-14.888,3.473c-6.263-3.496-18.686-9.011-21.542-1.422c-1.419,3.69,4.728,4.103,4.229,11.357 c-4.251,3.584-7.67,7.395-10.382,12.395h-3.479c-4.267,0-8.006,3.607-8.006,8.147v13.158 C190.5,120.341,194.053,124.08,198.297,124.101z M215.375,93.966c2.43,0,4.6,1.966,4.6,4.394c0,2.55-2.167,4.508-4.6,4.508 c-2.439,0-4.392-1.958-4.392-4.508C210.983,95.932,212.936,93.966,215.375,93.966z"/><g><path fill="#4C4C4C" d="M95.786,315.506c-0.885,0.557-1.578,1.197-2.504,1.703c-0.936,0.508-1.891,0.965-2.857,1.26 c-0.97,0.412-1.911,0.5-2.813,0.5c-0.371,0-0.52-0.012-0.867-0.043c-0.124-0.031-0.468-0.195-0.597-0.273 c-0.339-0.191-0.447-0.41-0.771-0.656c-0.122-0.26-0.25-0.555-0.587-0.975c1.345-0.303,2.421-0.791,3.673-1.457 c1.026-0.674,1.978-1.391,2.625-2.156c0.874-0.758,1.42-1.666,1.891-2.592c0.449-0.932,0.791-1.748,0.791-2.676 c0-0.887-0.298-1.633-0.45-2.32c-0.377-0.584-0.822-1.223-1.316-1.701c-0.509-0.479-1.053-0.791-1.875-1.039 c-0.605-0.254-1.446-0.439-2.11-0.439c-0.985,0-1.924,0.217-2.819,0.512c-0.874,0.422-1.5,0.904-2.291,1.445 c-0.584,0.658-1.125,1.363-1.609,2.131c-0.496,0.758-0.936,1.646-1.329,2.564c-0.393,0.805-0.536,1.727-0.823,2.662 c-0.104,0.928-0.145,1.732-0.145,2.607c0,0.297,0.006,0.592,0.021,0.885c-0.39,0.307-0.755,0.594-1.065,0.842 c-0.403,0.254-0.833,0.486-1.249,0.736c-0.194,0.234-0.625,0.469-1.037,0.68c-0.411,0.207-0.611,0.297-1.003,0.461 c-0.393,0.057-0.548,0.088-0.937,0.088c-0.375,0-0.499-0.043-0.825-0.248c-0.105-0.098-0.202-0.336-0.483-0.721 c-0.065-0.264-0.106-0.562-0.135-0.996c-0.025-0.305-0.039-0.746-0.039-1.197c0-0.287,0.013-0.695,0.034-1.006 c0.023-0.404,0.052-0.709,0.086-1.107c0.039-0.305,0.292-0.689,0.333-0.961c0.036-0.27,0.093-0.508,0.129-0.73 c0.838-1.883,1.485-3.609,2.366-5.301c0.864-1.697,1.492-3.393,2.312-5.213c0.576-1.709,1.127-3.445,1.636-5.312 c0.711-1.877,0.889-3.807,1.21-5.912c0.023-0.512,0.037-1.018,0.037-1.52c0-0.885-0.037-1.645-0.327-2.404 c-0.066-0.857-0.18-1.561-0.561-2.105c-0.393-0.533-0.595-1.016-1.088-1.422c-0.474-0.311-1.222-0.512-1.819-0.512 c-0.947,0-1.88,0.262-2.785,0.801c-0.916,0.641-1.583,1.398-2.449,2.395c-0.848,1.102-1.456,2.307-2.035,3.727 c-0.781,1.42-1.319,2.898-1.792,4.559c-0.471,1.666-0.914,3.375-1.066,5.24c-0.372,1.764-0.476,3.641-0.501,5.527 c-1.244,0.062-2.25,0.307-3.223,0.746c-0.969,0.439-1.9,0.938-2.797,1.604c-0.673,0.562-1.508,1.271-2.087,2.029 c-0.106,0.117-0.197,0.232-0.294,0.348c-0.337-0.367-0.687-0.732-1.046-1.096c-0.937-0.951-1.896-1.725-2.912-2.445 c-1.013-0.725-2.283-1.365-3.393-1.709c-1.301-0.443-2.678-0.676-4.083-0.676c-1.53,0-2.989,0.273-4.352,0.92 c-1.138,0.539-2.392,1.301-3.31,2.414c-0.72,0.998-1.529,2.203-2,3.623c-0.489,1.406-0.618,2.881-0.618,4.512 c0,0.166,0.013,0.326,0.015,0.49c-0.502,0.338-0.987,0.676-1.47,1.018c-1.26,0.879-2.325,1.629-3.582,2.395 c-1.053,0.863-2.139,1.572-3.456,2.137c-1.113,0.664-2.44,1.158-3.821,1.59c-1.378,0.32-2.816,0.535-4.325,0.535 c-1.326,0-2.37-0.207-3.348-0.518c-0.98-0.418-1.859-0.938-2.457-1.67c-0.807-0.729-1.318-1.674-1.735-2.834 c-0.212-1.154-0.53-2.404-0.53-3.879c0-1.123,0.054-2.297,0.385-3.518c0.13-1.221,0.509-2.477,0.937-3.85 c0.429-1.377,0.917-2.654,1.432-4.037c0.53-1.262,1.1-2.623,1.908-3.844c0.608-1.215,1.449-2.395,2.34-3.418 c0.668-1.133,1.586-2.074,2.524-2.832c0.926-0.752,1.888-1.424,2.869-1.895c0.985-0.469,1.98-0.699,3.209-0.699 c0.704,0,1.544,0.182,2.102,0.434c0.769,0.26,1.277,0.564,1.482,1.018c0.442,0.463,0.812,0.971,0.902,1.617 c0.319,0.537,0.363,1.203,0.363,1.889c0,1.229-0.352,2.387-0.828,3.381c-0.492,1-1.05,1.924-1.906,2.652 c-0.634,0.73-1.547,1.371-2.49,1.701c-0.963,0.449-1.914,0.668-2.861,0.668c-0.408,0-0.574-0.016-0.916-0.041 c-0.116-0.139-0.439-0.168-0.522-0.197c-0.104-0.031-0.383-0.172-0.468-0.199c-0.067-0.031-0.37-0.043-0.46-0.043 c-0.377,0-0.51,0.043-0.6,0.23c-0.31,0.07-0.377,0.287-0.421,0.529c-0.047,0.229-0.282,0.488-0.315,0.744 c-0.014,0.379-0.021,0.631-0.021,0.891c0,0.205,0,0.289,0.007,0.486c0.003,0.201,0.005,0.273,0.005,0.445 c0,0.588,0.391,1.191,0.97,1.498c0.789,0.41,1.769,0.508,3.145,0.508c0.985,0,1.972-0.104,2.958-0.525 c0.988-0.432,1.956-0.926,2.904-1.502c0.931-0.676,1.847-1.422,2.731-2.344c0.66-0.918,1.471-1.875,2.022-2.867 c0.536-0.984,1.019-2.113,1.422-3.146c0.401-1.148,0.504-2.281,0.504-3.307c0-1.641-0.356-3.061-0.887-4.246 c-0.525-1.191-1.117-2.156-2.025-2.906c-0.91-0.744-1.875-1.389-2.898-1.701c-1.029-0.418-2.252-0.518-3.276-0.518 c-1.526,0-3.248,0.244-4.73,0.75c-1.471,0.508-2.898,1.229-4.29,2.168c-1.396,0.943-2.534,1.975-3.843,3.307 c-1.086,1.227-2.322,2.615-3.325,4.062c-0.983,1.459-1.893,2.945-2.543,4.566c-0.874,1.527-1.456,3.16-1.967,4.795 c-0.729,1.631-0.967,3.135-1.339,4.748c-0.373,1.492-0.451,2.928-0.451,4.318c0,1.943,0.38,3.844,0.918,5.576 c0.553,1.852,1.466,3.357,2.517,4.748c1.267,1.387,2.633,2.41,4.167,3.168c1.528,0.871,3.361,1.305,5.309,1.305 c1.852,0,3.379-0.176,4.828-0.434c1.466-0.248,2.852-0.662,4.171-1.117c1.097-0.357,2.361-0.963,3.346-1.5 c0.985-0.652,1.914-1.215,2.601-1.893c0.903-0.678,1.78-1.252,2.613-1.945c0.462-0.51,1.02-1.014,1.531-1.465 c0.169,0.352,0.346,0.697,0.535,1.029c0.543,0.932,1.378,1.65,2.316,2.176c0.937,0.639,1.971,0.893,3.324,0.893 c0.928,0,1.601-0.186,2.462-0.461c0.869-0.277,1.484-0.729,2.272-1.232c0.587-0.5,1.136-1.166,1.626-1.881 c0.512-0.715,0.96-1.465,1.369-2.348c0.411-0.771,0.572-1.67,0.889-2.473c0.099-0.914,0.15-1.82,0.15-2.617 c0-0.914-0.057-1.83-0.168-2.787c-0.328-0.947-0.512-1.758-0.957-2.654l0.093-0.248c0.512,0.41,1.061,0.762,1.903,1.363 c0.828,0.504,1.454,1.023,2.307,1.668c0.315,0.27,0.679,0.568,1.038,0.869c-0.459,0.898-0.85,1.816-0.971,2.746 c-0.349,0.951-0.411,1.908-0.411,2.859c0,0.928,0.059,1.744,0.398,2.645c0.119,0.801,0.52,1.652,1,2.246 c0.46,0.697,0.999,1.322,1.808,1.652c0.598,0.439,1.487,0.652,2.429,0.652c0.586,0,1.396-0.166,1.965-0.273 c0.585-0.23,1.374-0.602,1.95-0.9c0.786-0.295,1.348-0.742,1.907-1.215c0.537-0.484,1.27-0.973,1.802-1.479 c0.197,0.789,0.634,1.488,1.104,1.982c0.486,0.498,0.957,0.934,1.445,1.184c0.469,0.26,0.919,0.463,1.366,0.516 c0.432,0.148,0.626,0.176,0.937,0.176c0.414,0,0.84-0.031,1.083-0.207c0.448-0.062,0.898-0.262,1.374-0.484 c0.458-0.215,0.934-0.441,1.401-0.695c0.468-0.242,0.939-0.494,1.383-0.75c0.771-0.52,1.55-1.084,2.333-1.668 c0.202,0.361,0.416,0.707,0.65,1.016c0.801,0.889,1.486,1.578,2.705,2.074c1.001,0.486,2.087,0.725,3.486,0.725 c0.918,0,1.828-0.049,2.736-0.264c0.686-0.215,1.56-0.469,2.436-0.863c0.651-0.291,1.493-0.717,2.333-1.055 c0.615-0.451,1.391-0.9,1.976-1.355c1.438-0.998,2.834-2.189,3.964-3.564l-2.836-2.904 C97.259,314.312,96.675,314.848,95.786,315.506z M47.406,314.312c-0.333,0.83-0.48,1.727-0.896,2.463 c-0.409,0.756-0.621,1.43-1.125,1.916c-0.444,0.494-0.959,0.74-1.412,0.74c-0.748,0-1.241-0.061-1.675-0.309 c-0.228-0.232-0.621-0.629-0.976-0.957c-0.126-0.439-0.423-0.912-0.522-1.428c-0.004-0.033-0.058-0.072-0.062-0.107 c0.255-0.135,0.763-0.26,0.763-0.359v-4.744c0,0.047-0.202,0.1-0.33,0.148c0.183-0.762,0.526-1.48,0.882-2.094 c0.227-0.771,0.708-1.455,1.437-1.945c0.523-0.502,1.062-0.854,1.595-0.854c0.476,0,0.904,0.172,1.297,0.412 c0.181,0.25,0.542,0.545,0.647,0.986c0.331,0.453,0.412,0.947,0.463,1.586c0.07,0.533,0.301,1.199,0.301,1.777 C47.792,312.449,47.518,313.367,47.406,314.312z M65.165,316.76c-0.096,0.271-0.414,0.529-0.542,0.9 c-0.337,0.252-0.451,0.502-0.771,0.723c-0.146,0.117-0.5,0.314-0.644,0.498c-0.356,0.066-0.492,0.217-0.869,0.217 c-0.489,0-0.925-0.156-1.107-0.229c-0.393-0.191-0.745-0.408-0.835-0.641c-0.106-0.232-0.168-0.486-0.417-0.76 c-0.046-0.266-0.062-0.533-0.062-0.906c0-0.729,0.083-1.5,0.445-2.426c0.333-0.93,0.558-1.855,1.06-2.672 c0.483-0.924,1.272-1.697,1.885-2.551c0.854-0.75,1.761-1.299,2.723-1.773c0.01-0.006,0.021,0.066,0.026,0.346 c0.01,0.383,0.012,0.709,0.018,1.189c0.005,0.484,0.011,1.102,0.016,1.637c0.01,0.539,0.015,1.172,0.026,1.689 c0.005,0.514,0.018,1.117,0.033,1.463c0.016,0.455,0.034,0.859,0.057,0.963C66.021,315.338,65.596,316.068,65.165,316.76z M71.5,307.176v-0.229c0-0.232,0-0.512,0-0.947c0-0.438-0.102-0.918-0.095-1.432c0.005-0.516-0.032-1.178-0.011-1.861 c0.018-0.59,0.013-1.293,0.058-2.006c0.018-0.408,0.035-0.953,0.288-1.842c0.062-0.781,0.116-1.727,0.193-2.721 c0.295-1.117,0.39-2.133,0.727-3.281c0.129-1.152,0.265-2.141,0.634-3.08c0.375-0.936,0.565-1.67,0.987-2.213 c0.419-0.646,0.881-0.922,1.344-0.922c0.137,0,0.463,0.191,0.554,0.471c0.072,0.273,0.33,0.9,0.33,1.66 c0,0.543-0.222,1.418-0.29,2.41c-0.039,0.756-0.121,1.631-0.434,2.432c-0.102,0.9-0.212,1.812-0.566,2.621 c-0.143,0.928-0.509,1.848-0.887,2.654c-0.155,0.912-0.428,1.814-0.599,2.574C72.926,303.373,71.5,305.273,71.5,307.176z M84.324,312.203c0.018-0.461,0.052-0.928,0.323-1.406c0.049-0.484,0.122-0.967,0.253-1.441c0.282-0.479,0.419-0.922,0.803-1.232 c0.377-0.43,0.584-0.699,1.042-0.939c0.456-0.229,0.97-0.4,1.743-0.4c0.199,0,0.58,0.223,0.928,0.672 c0.125,0.453,0.203,0.961,0.203,1.648c0,0.461-0.111,0.949-0.523,1.438c-0.414,0.488-0.876,0.955-1.391,1.408 c-0.512,0.34-1.037,0.744-1.595,1.004c-0.773,0.254-1.309,0.43-1.806,0.43C84.303,312.994,84.309,312.674,84.324,312.203z"/><path fill="#4C4C4C" d="M165.09,315.506c-0.874,0.557-1.784,1.197-2.503,1.703c-0.939,0.508-1.896,0.965-2.86,1.26 c-0.97,0.412-1.898,0.5-2.814,0.5c-0.367,0-0.52-0.012-0.866-0.043c-0.126-0.031-0.47-0.195-0.581-0.273 c-0.352-0.191-0.466-0.41-0.796-0.656c-0.114-0.26-0.448-0.555-0.577-0.975c1.345-0.303,2.436-0.791,3.462-1.457 c1.237-0.674,2.188-1.391,2.84-2.156c0.869-0.758,1.415-1.666,1.885-2.592c0.453-0.932,0.792-1.748,0.792-2.676 c0-0.887-0.294-1.633-0.45-2.32c-0.375-0.584-0.825-1.223-1.319-1.701c-0.504-0.479-1.047-0.791-1.875-1.039 c-0.59-0.254-1.443-0.439-2.328-0.439c-0.988,0-1.914,0.217-2.583,0.512c-0.888,0.422-1.723,0.904-2.307,1.445 c-0.584,0.658-1.335,1.363-1.831,2.131c-0.48,0.758-0.92,1.646-1.106,2.564c-0.391,0.805-0.52,1.727-0.83,2.662 c-0.096,0.928-0.137,1.732-0.137,2.607c0,0.275,0.007,0.549,0.019,0.82c-0.135,0.129-0.267,0.262-0.412,0.383 c-0.402,0.285-0.603,0.566-1.022,0.941c-0.424,0.279-0.858,0.527-1.288,0.762c-0.207,0.242-0.651,0.449-1.078,0.537 c-0.432,0.186-0.861,0.223-1.042,0.223c-0.373,0-0.533-0.201-0.817-0.502c-0.09-0.303-0.137-0.775-0.137-1.416 c0-1.025,0.069-2.121,0.227-3.094c0.365-0.967,0.743-1.924,0.913-2.873c0.409-0.951,0.789-1.9,0.937-2.852 c0.365-0.949,0.45-1.906,0.45-2.887c0-0.486-0.046-0.932-0.113-1.203c-0.291-0.287-0.375-0.525-0.479-0.736 c-0.326-0.205-0.452-0.264-0.788-0.301c-0.111-0.141-0.218-0.16-0.533-0.16c-0.6,0-1.438,0.246-2.312,0.746 c-0.655,0.609-1.534,1.184-2.397,2.043c-0.657,0.76-1.521,1.535-2.144,2.471c-0.836,0.928-1.425,1.828-2.181,2.582l-0.455-0.27 c0.483-0.941,1.226-2.068,1.805-3.279c0.576-1.205,1.365-2.441,1.955-3.848c0.793-1.396,1.378-2.814,1.947-4.268 c0.784-1.441,1.319-2.879,1.805-4.305c0.486-1.426,0.937-2.713,1.094-4.084c0.382-1.262,0.476-2.465,0.476-3.592 c0-0.727-0.029-1.412-0.104-1.957c-0.059-0.646-0.393-1.139-0.548-1.582c-0.379-0.34-0.828-0.74-1.311-0.979 c-0.504-0.24-1.06-0.299-1.934-0.299c-1.474,0-2.86,0.449-3.946,1.23c-1.288,0.902-2.269,1.965-3.181,3.402 c-0.696,1.547-1.539,3.104-2.074,5.002c-0.778,1.908-1.264,3.969-1.489,5.979c-0.361,1.773-0.681,3.564-0.852,5.363 c0.008-0.102,0.014-0.203,0.014-0.32c0-0.348-0.036-0.756-0.119-1.012c-0.274-0.266-0.404-0.453-0.776-0.457 c-0.131-0.016-0.515-0.021-0.954-0.027c-0.422-0.004-0.646-0.01-1.102-0.025c-0.447-0.004-0.923-0.016-1.389-0.02 c-0.478-0.016-0.933-0.141-1.363-0.145c-0.432-0.006-0.855-0.012-1.016-0.016c-0.38-0.006-0.51-0.016-0.805-0.021 c0.737-0.783,1.218-1.67,1.691-2.463c0.487-0.893,0.924-1.682,1.123-2.564c0.403-0.781,0.768-1.654,0.876-2.42 c0.124-0.756,0.398-1.604,0.398-2.322c0-0.787-0.271-1.66-0.393-2.422c-0.101-0.746-0.471-1.457-0.882-1.988 c-0.432-0.648-0.686-1.117-1.378-1.412c-0.504-0.416-1.026-0.504-1.593-0.504c-0.973,0-1.919,0.344-2.839,1.252 c-0.916,0.91-1.805,1.977-2.434,3.414c-0.837,1.547-1.432,3.092-1.986,4.969c-0.76,1.879-1.241,3.795-1.691,5.738 c-0.072,0.014-0.211,0.02-0.651,0.02c-0.424-0.006-0.874-0.014-1.366-0.02c-0.483-0.004-0.985-0.012-1.489-0.004 c-0.515,0.004-0.99,0.023-1.451,0.172c-0.463,0.043-0.882,0.105-1.249,0.297c-0.166,0.191-0.241,0.424-0.241,0.689 c0,0.074,0.005,0.266,0.014,0.477c0.01,0.209,0.033,0.303,0.079,0.504c0.062,0.199,0.135,0.279,0.456,0.457 c0.098,0.066,0.463,0.227,0.662,0.246c0.856,0.047,1.407,0.191,1.847,0.232c0.458,0.027,0.855,0.057,0.998,0.084 c0.365,0.139,0.719,0.164,0.861,0.191c0.126,0.031,0.525,0.168,0.992,0.195c-0.079,0.977-0.139,1.945-0.175,2.928 c-0.262,0.982-0.282,1.916-0.282,2.838c0,2.201,0.3,4.279,0.463,6.027c0.37,1.852,0.817,3.338,1.35,4.674 c0.522,1.242,1.35,2.199,2.029,2.898c0.887,0.578,1.859,0.977,2.9,0.977c0.741,0,1.279-0.166,1.864-0.27 c0.791-0.229,1.425-0.609,2.332-0.945c0.906-0.43,1.86-0.932,2.892-1.588c0.81-0.434,1.798-0.963,2.859-1.588 c0.004,0.428,0.013,0.842,0.029,1.295c0.025,0.535,0.073,1.148,0.37,1.617c0.075,0.367,0.408,0.777,0.575,1.043 c0.364,0.254,0.576,0.436,1.057,0.436c0.409,0,0.786-0.041,0.923-0.238c0.344-0.191,0.458-0.432,0.784-0.709 c0.101-0.283,0.406-0.719,0.55-1.205c0.109-0.48,0.468-1.121,0.859-1.701c0.572-1.375,1.184-2.623,2.045-3.842 c0.874-1.34,1.518-2.391,2.348-3.48c0.851-0.982,1.436-1.76,1.968-2.447c0.543-0.684,0.988-1.123,1.34-1.215l0.479,0.035 c-0.039,0.037-0.277,0.227-0.381,0.484c-0.083,0.266-0.392,0.67-0.499,1.131c-0.101,0.352-0.434,0.951-0.569,1.469 c-0.338,0.516-0.444,1.158-0.745,1.695c-0.111,0.533-0.193,1.18-0.483,1.707c-0.081,0.645-0.111,1.143-0.111,1.619 c0,0.709,0.049,1.438,0.37,2.203c0.116,0.752,0.488,1.576,0.692,2.166c0.427,0.689,0.905,1.201,1.661,1.65 c0.545,0.461,1.148,0.678,2.009,0.678c0.515,0,1.021-0.041,1.565-0.242c0.744-0.205,1.282-0.441,1.804-0.695 c0.541-0.258,1.076-0.531,1.822-0.947c0.516-0.297,1.034-0.701,1.506-1.002c0.472-0.377,0.903-0.654,1.314-0.922 c0.201,0.361,0.412,0.703,0.644,1.01c0.817,0.889,1.505,1.578,2.519,2.074c1.189,0.486,2.275,0.725,3.69,0.725 c0.903,0,1.813-0.049,2.498-0.264c0.905-0.215,1.782-0.469,2.661-0.863c0.65-0.291,1.49-0.717,2.108-1.055 c0.837-0.451,1.411-0.9,2.201-1.355c1.438-0.998,2.805-2.189,3.977-3.564l-2.855-2.904 C166.577,314.312,165.977,314.848,165.09,315.506z M115.84,296.375c0.387-1.342,0.561-2.512,0.988-3.518 c0.409-1,0.825-1.9,1.042-2.6c0.424-0.697,0.846-0.982,1.277-0.982c0.15,0,0.487,0.025,0.567,0.199 c0.078,0.062,0.359,0.254,0.401,0.463c0.036,0.094,0.078,0.295,0.087,0.518c0.013,0.217,0.021,0.422,0.021,0.514 c0,0.475-0.078,1.127-0.437,1.852c-0.129,0.723-0.511,1.48-0.923,2.369c-0.228,0.789-0.672,1.689-1.153,2.494 c-0.473,0.904-0.949,1.672-1.401,2.516c-0.342-0.129-0.46-0.143-0.59-0.156c-0.339-0.01-0.456-0.023-0.789-0.035 C115.289,298.811,115.439,297.6,115.84,296.375z M124.05,315.844c-0.542,0.439-1.078,0.875-1.631,1.178 c-0.763,0.402-1.303,0.684-1.811,0.922c-0.52,0.254-1.008,0.469-1.486,0.551c-0.463,0.189-0.885,0.229-1.27,0.229 c-0.497,0-0.955-0.039-1.179-0.229c-0.43-0.088-0.831-0.332-1.195-0.742c-0.166-0.297-0.497-0.75-0.569-1.262 c-0.078-0.625-0.132-1.205-0.132-2.068c0-0.27,0.005-0.568,0.005-0.988c0.015-0.299,0.026-0.734,0.034-1.158 c0.005-0.326,0.015-0.766,0.02-1.205c0.008-0.326,0.016-0.752,0.026-1.186c0.02-0.793,0.049-1.721,0.078-2.646 c0.413-0.469,0.855-1.242,1.306-1.764c0.447-0.527,0.685-0.975,1.127-1.975h8.523c0.401,0,0.569,0.072,0.944-0.205 c0.284-0.289,0.4-0.409,0.444-0.759c-0.028,0.303-0.062,0.675-0.08,0.979c-0.343,2.143-0.429,4.153-0.512,6.077 c-0.216,1.584-0.276,3.116-0.298,4.454c-0.181,0.174-0.361,0.354-0.552,0.527C125.338,315.041,124.809,315.506,124.05,315.844z M132.514,305.076c-0.465,1.127-0.928,2.107-1.354,3.051c0.067-1.67,0.385-3.361,0.533-5.182c0.074-0.727,0.338-1.49,0.411-2.26 c0.073-0.889,0.375-1.672,0.463-2.576c0.1-0.904,0.423-1.699,0.537-2.6c0.328-0.799,0.45-1.684,0.804-2.455 c0.983-2.375,1.904-4.234,2.532-5.449c0.83-1.221,1.362-1.889,1.782-1.889c0.168,0,0.471,0.629,0.471,1.67 c0,0.725-0.329,1.889-0.766,3.379c-0.204,1.598-0.99,3.49-1.884,5.689c-0.153,0.691-0.548,1.447-0.98,2.404 c-0.223,0.943-0.667,1.924-1.141,3.047C133.46,302.92,132.995,304.053,132.514,305.076z M153.631,312.203 c0.014-0.461,0.047-0.928,0.096-1.406c0.269-0.484,0.344-0.967,0.453-1.441c0.318-0.479,0.442-0.922,0.825-1.232 c0.17-0.43,0.587-0.699,1.042-0.939c0.468-0.229,0.975-0.4,1.746-0.4c0.197,0,0.577,0.223,0.713,0.672 c0.353,0.453,0.415,0.961,0.415,1.648c0,0.461-0.104,0.949-0.522,1.438c-0.414,0.488-0.872,0.955-1.386,1.408 c-0.502,0.34-1.042,0.744-1.626,1.004c-0.747,0.254-1.264,0.43-1.776,0.43C153.608,312.994,153.613,312.674,153.631,312.203z"/><path fill="#4C4C4C" d="M288.917,315.506c-0.874,0.557-1.789,1.197-2.728,1.703c-0.929,0.508-1.884,0.965-2.848,1.26 c-0.967,0.412-1.913,0.5-2.604,0.5c-0.366,0-0.705-0.012-0.85-0.043c-0.35-0.031-0.484-0.195-0.601-0.273 c-0.336-0.191-0.465-0.41-0.781-0.656c-0.127-0.26-0.46-0.555-0.576-0.975c1.143-0.303,2.423-0.791,3.452-1.457 c1.029-0.674,1.978-1.391,2.839-2.156c0.866-0.758,1.425-1.666,1.883-2.592c0.46-0.932,0.585-1.748,0.585-2.676 c0-0.887-0.075-1.633-0.466-2.32c-0.155-0.584-0.59-1.223-1.097-1.701c-0.491-0.479-1.047-0.791-1.859-1.039 c-0.6-0.254-1.461-0.439-2.332-0.439c-0.988,0-1.927,0.217-2.591,0.512c-0.893,0.422-1.728,0.904-2.312,1.445 c-0.586,0.658-1.332,1.363-1.813,2.131c-0.495,0.758-0.936,1.646-1.121,2.564c-0.373,0.766-0.702,1.633-0.806,2.521 c-0.157,0.061-0.32,0.121-0.498,0.182c-0.6,0.275-1.417,0.457-1.983,0.457c-0.345,0-0.476-0.031-0.807-0.178 c-0.111-0.057-0.21-0.242-0.522-0.361c-0.101-0.221-0.174-0.59-0.447-0.895c-0.052-0.301-0.08-0.75-0.08-1.365 c0-0.281,0.018-0.602,0.06-1.061c0.035-0.471,0.3-0.951,0.346-1.436c0.062-0.486,0.102-0.959,0.14-1.418 c0.057-0.463,0.279-0.758,0.279-1.111c0-0.289-0.25-0.551-0.312-0.799c-0.075-0.248-0.158-0.477-0.48-0.684 c-0.104-0.201-0.447-0.27-0.602-0.43c-0.36-0.057-0.501-0.082-0.865-0.082c-0.882,0-1.492,0.232-2.03,0.676 c-0.768,0.344-1.29,0.959-1.766,1.523c-0.489,0.666-0.934,1.186-1.345,1.908c-0.204,0.721-0.598,0.758-0.976,1.758h-0.142 c-0.014-1-0.76-1.117-0.76-1.971c0-0.74,0-1.422,0-1.938c0-0.463,0.365-0.773,0.354-1.018c-0.014-0.26,0.142-0.475-0.138-0.654 c-0.052-0.084-0.043-0.238-0.377-0.26c-0.126-0.02-0.455-0.025-0.65-0.025c-0.41,0-0.762,0.006-0.88,0.025 c-0.339,0.021-0.427,0.166-0.525,0.234c-0.286,0.057-0.365,0.248-0.427,0.459c-0.285,0.215-0.342,0.461-0.401,0.744 c-0.101,0.482-0.42,1.145-0.534,1.877c-0.323,0.729-0.42,1.506-0.518,2.422c-0.323,0.928-0.414,1.879-0.725,2.846 c-0.104,0.977-0.181,1.939-0.246,2.895c-0.205,0.689-0.289,1.363-0.335,1.982c-0.391,0.295-0.812,0.551-1.374,0.867 c-0.521,0.291-1.019,0.684-1.531,0.938c-0.49,0.264-0.985,0.482-1.447,0.57c-0.46,0.197-0.905,0.24-1.073,0.24 c-0.373,0-0.713-0.037-0.807-0.119c-0.08-0.178-0.138-0.393-0.401-0.645c-0.036-0.248-0.059-0.52-0.067-0.928 c-0.007-0.293-0.01-0.715-0.01-1.041c0-0.236,0.024-0.66,0.07-1.184c0.261-0.639,0.326-1.219,0.396-1.945 c0.088-0.846,0.377-1.604,0.476-2.512c0.083-0.801,0.383-1.691,0.453-2.453c0.075-0.773,0.147-1.611,0.4-2.205 c0.05-0.699,0.078-1.312,0.078-1.637c0-0.443-0.331-0.738-0.571-0.986c-0.468-0.254-1.223-0.439-1.852-0.439 c-0.784,0-1.332,0.076-1.823,0.311c-0.51,0.248-0.888,0.623-0.923,0.926l-2.051,11.178c-0.065,0.537-0.375,1.037-0.502,1.508 c-0.356,0.477-0.496,0.9-0.874,1.18c-0.378,0.285-0.559,0.631-0.957,0.719c-0.398,0.205-0.584,0.248-0.978,0.248 c-0.333,0-0.435-0.031-0.517-0.201c-0.306-0.07-0.383-0.262-0.442-0.367c-0.054-0.207-0.32-0.43-0.344-0.678 c-0.029-0.234-0.042-0.48-0.042-0.734c0-0.006,0.016-0.238,0.049-0.695c0.262-0.459,0.308-0.988,0.371-1.705 c0.074-0.713,0.362-1.605,0.442-2.527c0.075-0.828,0.158-1.779,0.462-2.742c0.083-0.955,0.391-1.914,0.484-2.871 c0.08-0.945,0.155-1.854,0.445-2.602c0-0.252-0.311-0.471-0.5-0.666c-0.401-0.203-0.91-0.26-1.776-0.279 c-0.465,0.016-0.924,0.186-1.12,0.426c-0.414,0.133-0.82,0.516-0.964,0.826c-0.37,0.402-0.72,0.736-0.841,1.203 c-0.105,0.467-0.418,0.922-0.491,1.381c-0.073,0.461-0.352,0.896-0.393,1.207c-0.042,0.426-0.07,0.691-0.088,0.926 c-0.404,2.02-0.763,3.822-0.929,5.516c-0.16,0.152-0.317,0.305-0.485,0.457c-0.507,0.469-1.037,0.924-1.792,1.262 c-0.546,0.439-1.084,0.875-1.634,1.178c-0.764,0.402-1.298,0.684-1.811,0.922c-0.523,0.254-1.012,0.469-1.487,0.551 c-0.463,0.189-0.887,0.229-1.27,0.229c-0.495,0-0.949-0.039-1.174-0.229c-0.437-0.088-0.833-0.332-0.998-0.742 c-0.362-0.297-0.696-0.75-0.773-1.262c-0.08-0.625-0.129-1.205-0.129-2.068c0-0.27,0-0.568,0.002-0.988 c0.009-0.299,0.016-0.734,0.021-1.158c0.015-0.326,0.026-0.766,0.039-1.205c0.005-0.326,0.015-0.752,0.021-1.186 c0.021-0.793,0.05-1.721,0.08-2.646c0.414-0.469,0.843-1.242,1.309-1.764c0.447-0.527,0.889-0.975,1.35-1.975h8.28 c0.422,0,0.603,0.072,0.962-0.205c0.378-0.396,0.468-0.597,0.468-1.192c0-0.346-0.034-0.687-0.119-0.942 c-0.287-0.266-0.403-0.417-0.775-0.423c-0.13-0.014-0.533-0.003-0.952-0.007c-0.199-0.006-0.652-0.008-1.102-0.018 c-0.451-0.006-0.924-0.011-1.395-0.017c-0.479-0.016-0.928-0.138-1.36-0.142c-0.447-0.008-0.634-0.011-1.014-0.015 c-0.382-0.006-0.512-0.015-0.579-0.021c0.496-0.783,0.99-1.67,1.46-2.463c0.486-0.893,0.926-1.682,1.125-2.564 c0.403-0.781,0.771-1.654,0.879-2.42c0.121-0.756,0.38-1.604,0.38-2.322c0-0.787-0.259-1.66-0.372-2.422 c-0.106-0.746-0.476-1.457-0.888-1.988c-0.207-0.648-0.66-1.117-1.171-1.416c-0.713-0.412-1.249-0.5-1.8-0.5 c-0.973,0-1.918,0.344-2.845,1.252c-0.91,0.91-1.795,1.977-2.431,3.414c-0.837,1.547-1.432,3.092-1.98,4.969 c-0.765,1.879-1.249,3.795-1.466,5.738c-0.302,0.014-0.439,0.02-0.879,0.02c-0.422-0.006-0.874-0.014-1.369-0.02 c-0.478-0.004-0.982-0.012-1.484-0.004c-0.515,0.004-0.99,0.023-1.463,0.172c-0.456,0.043-0.869,0.105-1.239,0.297 c-0.164,0.191-0.238,0.424-0.238,0.689c0,0.074,0.002,0.266,0.01,0.477c0.007,0.209,0.036,0.303,0.083,0.504 c0.046,0.199,0.129,0.279,0.451,0.457c0.1,0.066,0.467,0.227,0.843,0.246c0.677,0.047,1.228,0.191,1.67,0.232 c0.437,0.027,0.856,0.057,0.995,0.084c0.362,0.139,0.719,0.164,0.861,0.191c0.347,0.025,0.527,0.168,0.993,0.195 c-0.085,0.977-0.138,1.945-0.176,2.928c-0.261,0.982-0.278,1.916-0.278,2.838c0,2.201,0.297,4.279,0.457,6.027 c0.016,0.078,0.034,0.148,0.051,0.227c-0.217,0.174-0.439,0.35-0.663,0.496c-0.495,0.418-0.985,0.725-1.509,1.133 c-0.724,0.291-1.223,0.684-1.729,0.938c-0.495,0.264-0.988,0.482-1.451,0.57c-0.476,0.197-0.903,0.24-1.073,0.24 c-0.388,0-0.504-0.037-0.805-0.119c-0.079-0.178-0.142-0.393-0.204-0.645c-0.238-0.248-0.258-0.52-0.268-0.928 c-0.005-0.293-0.011-0.715-0.011-1.041c0-0.236,0.024-0.66,0.067-1.184c0.272-0.639,0.332-1.219,0.403-1.945 c0.293-0.846,0.373-1.604,0.473-2.512c0.083-0.801,0.381-1.691,0.458-2.453c0.07-0.773,0.352-1.611,0.398-2.205 c0.046-0.699,0.067-1.312,0.067-1.637c0-0.443-0.113-0.738-0.564-0.986c-0.471-0.254-1.024-0.439-1.849-0.439 c-0.581,0-1.331,0.076-1.825,0.311c-0.51,0.248-0.662,0.623-0.923,0.926l-2.053,11.178c-0.059,0.537-0.375,1.037-0.512,1.508 c-0.343,0.477-0.48,0.9-0.858,1.18c-0.176,0.285-0.562,0.631-0.962,0.719c-0.398,0.205-0.584,0.248-0.973,0.248 c-0.116,0-0.434-0.031-0.532-0.201c-0.111-0.07-0.377-0.262-0.432-0.367c-0.051-0.207-0.093-0.43-0.119-0.678 c-0.248-0.234-0.263-0.48-0.263-0.734c0-0.006,0.039-0.238,0.273-0.695c0.034-0.459,0.083-0.988,0.146-1.705 c0.075-0.713,0.349-1.605,0.442-2.527c0.072-0.828,0.38-1.779,0.463-2.742c0.083-0.955,0.388-1.914,0.466-2.871 c0.095-0.945,0.396-1.854,0.463-2.602c0-0.252-0.104-0.471-0.502-0.666c-0.396-0.203-0.911-0.26-1.772-0.279 c-0.468,0.016-0.923,0.186-1.119,0.426c-0.432,0.133-0.823,0.516-0.97,0.826c-0.364,0.402-0.512,0.736-0.838,1.203 c-0.106,0.467-0.416,0.922-0.486,1.381c-0.075,0.461-0.15,0.896-0.399,1.207c-0.044,0.426-0.084,0.691-0.101,0.926 c-0.022,0.111-0.037,0.217-0.057,0.328c-0.112,0.061-0.221,0.123-0.336,0.184c-0.636,0.443-1.583,0.764-2.829,1.174 c-1.04,0.295-2.39,0.502-3.846,0.502c-0.072,0-0.14-0.012-0.192-0.025c-0.273-0.031-0.326-0.053-0.377-0.182 c-0.049-0.027-0.119-0.049-0.406-0.066c-0.057-0.021-0.138-0.031-0.46-0.031c-0.083,0-0.161,0.01-0.461,0.035 c-0.093,0.023-0.207,0.08-0.581,0.27l0.02-0.305c0.934-1.176,1.859-2.389,2.757-3.764c0.886-1.27,1.583-2.656,2.454-4.057 c0.855-1.395,1.477-2.689,2.059-4.09c0.792-1.398,1.334-2.666,1.811-4.01c0.476-1.234,0.915-2.432,1.058-3.584 c0.359-1.045,0.447-2.023,0.447-2.922c0-0.961-0.096-1.727-0.473-2.406c-0.155-0.682-0.592-1.184-1.05-1.613 c-0.458-0.32-0.957-0.59-1.464-0.791c-0.527-0.201-1.018-0.258-1.518-0.258c-1.34,0-2.4,0.32-3.631,1.059 c-1.008,0.854-1.955,1.855-2.857,3.105c-0.686,1.363-1.549,2.857-2.144,4.676c-0.805,1.715-1.358,3.598-1.859,5.547 c-0.515,1.951-0.978,4.029-1.402,6.037c-0.437,2.119-0.838,4.199-0.988,6.16c-0.37,1.939-0.504,3.832-0.819,5.566 c-0.094,1.838-0.166,3.346-0.44,4.74c-0.054,1.393-0.088,2.42-0.105,3.301c-0.023,0.777-0.031,1.24-0.031,1.275 c0,0.928,0.019,1.857,0.052,2.82c0.034,0.957,0.09,1.902,0.398,2.838c0.083,0.938,0.424,1.738,0.587,2.623 c0.372,0.783,0.776,1.5,1.014,2.166c0.442,0.562,0.947,1.041,1.704,1.459c0.538,0.418,1.141,0.52,2.022,0.52 c0.864,0,1.476-0.098,2.242-0.492c0.579-0.297,1.112-0.75,1.587-1.264c0.496-0.631,0.938-1.193,1.353-1.908 c0.427-0.707,0.59-1.438,0.946-2.178c0.138-0.852,0.468-1.588,0.564-2.318c0.085-0.738,0.373-1.426,0.417-1.98 c0.046-0.66,0.078-1.162,0.095-1.611c0.021-0.451,0.031-0.709,0.031-0.785c0-1.152-0.08-2.301-0.458-3.338 c-0.17-1.148-0.566-2.125-0.982-3.057c-0.437-0.998-0.926-1.971-1.422-3.051c0.993-0.018,2.198-0.072,3.196-0.27 c0.929-0.082,1.896-0.311,2.904-0.688c0.216-0.057,0.43-0.119,0.644-0.184c-0.047,0.27-0.091,0.545-0.145,0.809 c-0.372,1.707-0.442,3.146-0.442,4.305c0,0.932,0.049,1.686,0.37,2.232c0.12,0.668,0.477,1.164,0.647,1.59 c0.393,0.307,0.83,0.566,1.27,0.764s0.696,0.248,1.389,0.248c0.546,0,1.083-0.076,1.647-0.309 c0.768-0.248,1.324-0.643,1.877-1.092c0.541-0.342,1.296-0.939,1.839-1.469c0.543-0.539,1.054-1.211,1.567-1.908 c0.294,0.689,0.39,1.35,0.493,1.869c0.323,0.51,0.463,0.988,0.833,1.426c0.375,0.324,0.551,0.709,0.993,0.93 c0.43,0.238,0.9,0.289,1.425,0.289c0.515,0,1.065-0.035,1.844-0.225c0.576-0.191,1.334-0.422,1.939-0.658 c0.58-0.254,1.368-0.52,1.942-0.818c0.58-0.398,1.345-0.703,1.872-1.121c0.536-0.311,1.045-0.719,1.515-1.033 c0.218-0.189,0.429-0.354,0.633-0.516c0.088,0.246,0.176,0.49,0.27,0.725c0.52,1.242,1.348,2.199,2.03,2.898 c0.887,0.578,1.857,0.977,3.116,0.977c0.515,0,1.06-0.166,1.643-0.27c0.793-0.229,1.427-0.609,2.333-0.945 c0.894-0.43,1.859-0.932,2.894-1.588c0.674-0.361,1.474-0.795,2.336-1.289c0.031,0.611,0.119,1.125,0.354,1.525 c0.116,0.668,0.251,1.164,0.645,1.59c0.408,0.307,0.83,0.566,1.274,0.764c0.232,0.197,0.695,0.248,1.184,0.248 c0.748,0,1.286-0.076,1.847-0.309c0.564-0.248,1.327-0.643,1.883-1.092c0.538-0.342,1.089-0.939,1.836-1.469 c0.543-0.539,1.055-1.211,1.567-1.908c0.298,0.689,0.388,1.35,0.491,1.869c0.327,0.51,0.468,0.988,0.838,1.426 c0.147,0.324,0.546,0.709,0.99,0.93c0.431,0.238,0.9,0.289,1.428,0.289c0.527,0,1.061-0.035,1.852-0.225 c0.563-0.191,1.142-0.422,1.928-0.658c0.583-0.254,1.366-0.52,1.942-0.818c0.58-0.398,1.345-0.703,1.886-1.121 c0.016-0.01,0.031-0.023,0.046-0.031c0.005,0.068,0.007,0.145,0.011,0.209c0.033,0.51,0.102,1,0.427,1.455 c0.102,0.451,0.484,0.748,0.9,0.994c0.188,0.248,0.677,0.424,1.435,0.424c0.138,0,0.492-0.02,0.618-0.182 c0.313-0.051,0.445-0.248,0.541-0.488c0.32-0.236,0.434-0.516,0.542-0.93c0.306-0.311,0.407-0.934,0.735-1.467l3.892-11.113h0.4 c0.062,1,0.141,1.902,0.463,2.836c0.114,0.918,0.492,1.763,0.727,2.485c0.412,0.715,0.916,1.399,1.723,1.864 c0.577,0.463,1.498,0.708,2.532,0.708c0.769,0,1.316-0.149,1.859-0.36c0.419-0.076,0.974-0.229,1.441-0.422 c0.075,0.475,0.18,0.938,0.348,1.372c0.191,1.143,0.907,2.104,1.489,2.897c0.593,0.887,1.503,1.577,2.498,2.073 c0.998,0.486,2.31,0.726,3.709,0.726c0.918,0,1.811-0.049,2.5-0.264c0.903-0.215,1.793-0.469,2.446-0.863 c0.864-0.291,1.717-0.717,2.333-1.055c0.825-0.451,1.412-0.9,2.188-1.355c1.229-0.998,2.623-2.189,3.978-3.564l-2.853-2.904 C290.398,314.312,289.799,314.848,288.917,315.506z M222.046,296.375c0.383-1.342,0.562-2.512,0.97-3.518 c0.424-1,0.843-1.9,1.244-2.6c0.24-0.697,0.662-0.982,1.083-0.982c0.368,0,0.492,0.025,0.575,0.199 c0.305,0.062,0.362,0.254,0.398,0.463c0.042,0.094,0.068,0.295,0.083,0.518c0.021,0.217,0.026,0.422,0.026,0.514 c0,0.475-0.08,1.127-0.207,1.852c-0.357,0.723-0.742,1.48-0.954,2.369c-0.422,0.789-0.866,1.689-1.353,2.494 c-0.471,0.904-0.947,1.672-1.399,2.516c-0.122-0.129-0.46-0.143-0.592-0.156c-0.334-0.01-0.45-0.023-0.789-0.035 C221.49,298.811,221.643,297.6,222.046,296.375z M184.625,303.143c0.057-0.945,0.16-1.982,0.512-3.307 c0.129-1.223,0.543-2.646,1.032-4.172c0.473-1.641,1.078-3.518,1.959-5.645c0.37-0.719,0.533-1.23,0.945-1.533 c0.416-0.41,0.904-0.623,1.494-0.623c0.419,0,0.796,0.213,0.926,0.623c0.338,0.303,0.396,0.83,0.396,1.684 c0,0.527-0.329,1.299-0.597,2.416c-0.463,1.02-1.234,2.24-1.839,3.65c-0.84,1.416-1.505,2.887-2.437,4.541 c-0.918,1.648-1.846,3.316-2.775,4.994C184.293,305.004,184.381,304.094,184.625,303.143z M185.545,327.301 c-0.248,0.879-0.3,1.625-0.377,2.332c-0.081,0.703-0.422,1.23-0.787,1.693c-0.189,0.463-0.618,0.699-1.114,0.699 c-0.083,0-0.388-0.168-0.466-0.375c-0.083-0.115-0.375-0.559-0.442-1.248c-0.078-0.684-0.135-1.641-0.396-2.889 c-0.045-1.232-0.065-2.924-0.065-5.186c0-0.275,0.007-0.727,0.02-1.229c0.019-0.516,0.037-1.047,0.254-1.709 c0.052-0.66,0.075-1.225,0.109-1.902c0.03-0.688,0.078-1.217,0.113-1.717c0.034-0.502,0.275-0.943,0.332-1.344 c0.036-0.285,0.07-0.49,0.1-0.49c0.096,0,0.412,0.221,0.521,0.65c0.331,0.32,0.45,0.93,0.773,1.492 c0.104,0.68,0.202,1.393,0.525,2.162c0.108,0.875,0.191,1.641,0.488,2.404c0.07,0.881,0.127,1.631,0.17,2.363 c0.262,0.732,0.282,1.406,0.282,1.9C185.586,325.65,185.576,326.514,185.545,327.301z M277.453,312.203 c0.017-0.461,0.062-0.928,0.114-1.406c0.049-0.484,0.342-0.967,0.437-1.441c0.318-0.479,0.446-0.922,0.828-1.232 c0.165-0.43,0.585-0.699,1.056-0.939c0.449-0.229,0.956-0.4,1.52-0.4c0.408,0,0.786,0.223,0.923,0.672 c0.353,0.453,0.417,0.961,0.417,1.648c0,0.461-0.098,0.949-0.512,1.438c-0.43,0.488-0.885,0.955-1.401,1.408 c-0.502,0.34-1.039,0.744-1.811,1.004c-0.561,0.254-1.082,0.43-1.596,0.43C277.428,312.994,277.438,312.674,277.453,312.203z"/><path fill="#4C4C4C" d="M334.492,310.295c-1.037,0.295-2.389,0.502-3.826,0.502c-0.092,0-0.155-0.012-0.43-0.025 c-0.055-0.031-0.104-0.053-0.152-0.182c-0.052-0.031-0.311-0.049-0.391-0.066c-0.065-0.021-0.158-0.031-0.479-0.031 c-0.085,0-0.163,0.01-0.463,0.035c-0.078,0.023-0.23,0.08-0.579,0.27l0.022-0.305c0.932-1.176,1.854-2.389,2.77-3.764 c0.688-1.27,1.57-2.656,2.441-4.057c0.646-1.395,1.469-2.689,2.057-4.09c0.791-1.398,1.332-2.666,1.81-4.01 c0.491-1.234,0.916-2.432,1.063-3.584c0.369-1.045,0.439-2.023,0.439-2.922c0-0.961-0.078-1.727-0.474-2.406 c-0.155-0.682-0.574-1.184-1.048-1.613c-0.459-0.32-0.956-0.59-1.463-0.791c-0.525-0.201-1.023-0.258-1.725-0.258 c-1.133,0-2.402,0.32-3.409,1.059c-1.011,0.854-1.97,1.855-2.872,3.105c-0.88,1.363-1.536,2.857-2.352,4.676 c-0.598,1.715-1.137,3.598-1.651,5.547c-0.704,1.951-1.188,4.029-1.402,6.037c-0.285,1.43-0.555,2.836-0.754,4.203 c-0.053-0.053-0.104-0.107-0.156-0.16c-0.921-0.951-1.894-1.725-2.904-2.445c-1.019-0.725-2.291-1.365-3.383-1.709 c-1.315-0.443-2.678-0.676-4.101-0.676c-1.528,0-2.971,0.273-4.337,0.92c-1.177,0.539-2.41,1.301-3.32,2.414 c-0.932,0.998-1.528,2.203-2.002,3.623c-0.491,1.406-0.838,2.881-0.838,4.512c0,1.182,0.29,2.361,0.435,3.422 c0.381,1.166,0.822,2.158,1.365,3.086c0.528,0.932,1.382,1.65,2.302,2.176c0.936,0.639,1.969,0.893,3.326,0.893 c0.917,0,1.598-0.186,2.473-0.461c0.853-0.277,1.471-0.729,2.073-1.232c0.772-0.5,1.318-1.166,1.815-1.881 c0.505-0.715,0.959-1.465,1.367-2.348c0.422-0.771,0.567-1.67,0.891-2.473c0.098-0.914,0.146-1.82,0.146-2.617 c0-0.914-0.057-1.83-0.165-2.787c-0.331-0.947-0.722-1.758-0.957-2.654l0.088-0.248c0.515,0.41,1.076,0.762,1.906,1.363 c0.617,0.504,1.45,1.023,2.304,1.668c0.358,0.305,0.774,0.646,1.177,0.986c-0.256,1.441-0.464,2.842-0.545,4.152 c-0.106,1.838-0.18,3.346-0.453,4.74c-0.057,1.393-0.093,2.42-0.108,3.301c-0.021,0.777-0.028,1.24-0.028,1.275 c0,0.928,0.018,1.857,0.051,2.82c0.034,0.957,0.091,1.902,0.398,2.838c0.099,0.938,0.218,1.738,0.585,2.623 c0.373,0.783,0.571,1.5,1.017,2.166c0.441,0.562,0.949,1.041,1.481,1.459c0.773,0.418,1.376,0.52,2.244,0.52 c0.877,0,1.48-0.098,2.046-0.492c0.779-0.297,1.309-0.75,1.797-1.264c0.481-0.631,0.926-1.193,1.353-1.908 c0.191-0.707,0.577-1.438,0.934-2.178c0.145-0.852,0.458-1.588,0.563-2.318c0.086-0.738,0.187-1.426,0.417-1.98 c0.047-0.66,0.091-1.162,0.11-1.611c0.019-0.451,0.031-0.709,0.031-0.785c0-1.152-0.095-2.301-0.473-3.338 c-0.158-1.148-0.557-2.125-0.982-3.057c-0.442-0.998-0.911-1.971-1.426-3.051c0.996-0.018,1.989-0.072,3.218-0.27 c0.698-0.082,1.67-0.311,2.886-0.688c1.008-0.264,1.996-0.6,2.959-1.215l0.485-5.291c-0.579,0.678-1.442,1.195-2.363,1.676 C336.703,309.564,335.758,309.885,334.492,310.295z M312.354,314.312c-0.334,0.83-0.479,1.727-0.888,2.463 c-0.422,0.756-0.853,1.43-1.323,1.916c-0.461,0.494-0.952,0.74-1.451,0.74c-0.518,0-1.012-0.061-1.448-0.309 c-0.229-0.232-0.625-0.629-0.975-0.957c-0.129-0.439-0.444-0.912-0.507-1.428c-0.078-0.508-0.109-1.152-0.109-1.705 c0-0.922,0.062-1.857,0.42-2.83c0.126-0.961,0.512-1.867,0.951-2.621c0.225-0.771,0.695-1.455,1.233-1.945 c0.709-0.502,1.247-0.854,1.781-0.854c0.474,0,0.898,0.172,1.095,0.412c0.38,0.25,0.736,0.545,0.843,0.986 c0.329,0.453,0.408,0.947,0.463,1.586c0.066,0.533,0.096,1.199,0.096,1.777C312.535,312.449,312.48,313.367,312.354,314.312z M327.608,303.143c0.053-0.945,0.143-1.982,0.492-3.307c0.132-1.223,0.559-2.646,1.034-4.172c0.488-1.641,1.058-3.518,1.96-5.645 c0.367-0.719,0.546-1.23,0.951-1.533c0.409-0.41,0.9-0.623,1.484-0.623c0.425,0,0.815,0.213,0.929,0.623 c0.339,0.303,0.396,0.83,0.396,1.684c0,0.527-0.342,1.299-0.808,2.416c-0.476,1.02-1.008,2.24-1.629,3.65 c-0.841,1.416-1.712,2.887-2.426,4.541c-0.931,1.648-1.861,3.316-2.785,4.994C327.275,305.004,327.327,304.094,327.608,303.143z M328.307,327.301c-0.028,0.879-0.095,1.625-0.175,2.332c-0.301,0.703-0.42,1.23-0.803,1.693c-0.17,0.463-0.6,0.699-1.08,0.699 c-0.104,0-0.403-0.168-0.483-0.375c-0.104-0.115-0.376-0.559-0.438-1.248c-0.067-0.684-0.138-1.641-0.386-2.889 c-0.044-1.232-0.08-2.924-0.08-5.186c0-0.275,0.008-0.727,0.036-1.229c0.019-0.516,0.039-1.047,0.06-1.709 c0.228-0.66,0.257-1.225,0.303-1.902c0.031-0.688,0.067-1.217,0.101-1.717c0.033-0.502,0.07-0.943,0.331-1.344 c0.036-0.285,0.07-0.49,0.101-0.49c0.094,0,0.412,0.221,0.533,0.65c0.334,0.32,0.438,0.93,0.541,1.492 c0.323,0.68,0.437,1.393,0.752,2.162c0.099,0.875,0.184,1.641,0.479,2.404c0.069,0.881,0.129,1.631,0.184,2.363 c0.046,0.732,0.271,1.406,0.271,1.9C328.553,325.65,328.333,326.514,328.307,327.301z"/><path fill="#4C4C4C" d="M388.493,293.02c-0.471-0.168-0.946-0.199-1.451-0.199c-0.871,0-1.463,0.068-1.988,0.322 c-0.509,0.24-0.962,0.627-1.368,0.941c-0.393,0.42-0.517,0.85-0.592,1.191c-0.3,0.449-0.341,0.885-0.341,1.166 c0,0.988,0.386,1.865,0.928,2.418c0.556,0.656,1.513,0.926,2.866,0.926c0.832,0,1.403-0.059,1.92-0.289 c0.502-0.232,0.958-0.615,1.376-0.92c0.403-0.42,0.539-0.752,0.637-1.227c0.29-0.477,0.347-0.957,0.347-1.443 c0-0.627-0.067-1.092-0.389-1.414c-0.104-0.438-0.465-0.723-0.641-0.965C389.386,293.295,388.954,293.086,388.493,293.02z"/><path fill="#4C4C4C" d="M410.893,316.49c-0.397,0.264-0.796,0.535-0.99,0.787c-0.398,0.266-0.801,0.615-0.987,0.734 c-0.391,0.217-0.775,0.418-0.923,0.496c-0.371,0.184-0.515,0.215-0.854,0.215c-0.476,0-0.884-0.271-1.016-0.805 c-0.344-0.646-0.4-1.381-0.4-2.312c0-0.514,0.018-1.049,0.052-1.727c0.033-0.672,0.305-1.357,0.356-1.93 c0.052-0.688,0.124-1.359,0.398-1.928c0.08-0.666,0.137-1.201,0.194-1.814c0.253-0.504,0.315-0.959,0.352-1.281 c0.032-0.428,0.049-0.682,0.049-0.883c0-1.023-0.109-1.918-0.574-2.469c-0.445-0.66-0.987-0.939-1.812-0.939 c-0.636,0-1.412,0.082-1.961,0.455c-0.538,0.273-1.053,0.787-1.538,1.539c-0.253,0.205-0.336,0.463-0.456,0.877 c-0.333,0.307-0.449,0.76-0.801,1.236c-0.145,0.465-0.507,0.961-0.874,1.457c-0.155,0.611-0.515,1.1-0.657,1.578 c-0.354,0.461-0.468,0.682-0.788,1.098c-0.102,0.309-0.189,0.625-0.233,0.625h-0.453c0,0,0.014-0.146,0.037-0.537 c0.023-0.262,0.05-0.509,0.085-0.944c0.033-0.439,0.081-0.755,0.331-1.228c0.037-0.484,0.086-0.938,0.124-1.394 c0.034-0.465,0.062-0.901,0.086-1.206c0.023-0.422,0.051-0.689,0.051-0.916c0-0.766-0.095-1.442-0.48-1.923 c-0.173-0.477-0.683-0.718-1.557-0.718c-0.871,0-1.42,0.237-1.898,0.692c-0.46,0.471-0.641,0.993-0.929,1.687 c-0.124,0.795-0.454,1.906-0.568,3.113c-0.336,1.203-0.442,2.432-0.548,3.797c-0.302,1.215-0.384,2.414-0.44,3.701 c-0.132,0.121-0.263,0.246-0.382,0.383c-0.566,0.525-1.348,1.031-1.924,1.529c-0.582,0.604-1.368,0.963-1.939,1.375 c-0.559,0.418-1.325,0.52-1.824,0.52c-0.46,0-0.628-0.215-0.901-0.537c-0.099-0.434-0.138-0.936-0.138-1.617 c0-0.688,0.039-1.424,0.138-2.215c0.273-0.895,0.372-1.689,0.706-2.604c0.129-0.92,0.476-1.73,0.604-2.645 c0.35-0.922,0.486-1.691,0.812-2.447c0.127-0.854,0.225-1.547,0.522-2.094c0.076-0.658,0.113-1.133,0.113-1.408 c0-0.434-0.06-0.709-0.393-0.941c-0.116-0.227-0.557-0.289-1.115-0.289c-0.398,0-0.83,0.021-1.251,0.072 c-0.151,0.092-0.372,0.152-0.614,0.227c-0.024-0.031-0.048-0.625-0.072-0.643c-0.32-0.191-0.46-0.791-0.868-0.791h-12.074 c0.091-1,0.174-2.732,0.471-3.979c0.078-1.23,0.158-2.085,0.223-3.011c0.284-0.926,0.336-1.511,0.38-2.036 c0.039-0.533,0.075-0.927,0.325-1.347c0.034-0.312,0.055-0.651,0.07-0.765c0.019-0.219,0.023-0.406,0.023-0.604 c0.568-0.049,1.104-0.077,1.869-0.22c0.492-0.031,1.007-0.058,1.513-0.075c0.526-0.023,0.991-0.146,1.42-0.146 c1.379,0,2.553,0.009,3.896,0.146c1.357,0.018,2.691,0.049,3.786,0.09c1.313,0.148,2.381,0.213,3.421,0.389 c1.262,0.062,2.26,0.248,3.217,0.342c0.036,0.107,0.072,0.113,0.105,0.123c0.036,0,0.08,0.01,0.321,0.01 c0.204,0,0.595-0.154,0.956-0.252c0.153-0.197,0.489-0.42,0.577-0.678c0.083-0.254,0.369-0.512,0.411-0.895 c0.045-0.285,0.064-0.549,0.064-0.807c0-0.453-0.077-0.885-0.447-1.207c-0.168-0.426-0.877-0.688-1.505-0.914 c-2.715-0.412-5.167-0.666-7.574-0.742c-2.415-0.188-4.776-0.23-7.075-0.23c-3.124,0-6.326,0.24-9.134,0.719 c-2.607,0.461-4.986,1.189-7.161,2.17c-1.937,0.973-3.439,2.213-4.471,3.818c-1.257,1.506-1.761,3.398-1.761,5.561 c0,0.232,0.01,0.455,0.057,0.678c0.232,0.229,0.303,0.439,0.422,0.533c0.341,0.201,0.76,0.377,1.23,0.43 c0.474,0.16,1.053,0.184,1.957,0.184c0.549,0,1.038-0.152,1.431-0.236c0.186-0.195,0.532-0.398,0.61-0.629 c0.294-0.105,0.338-0.324,0.347-0.523c0.005-0.203,0.013-0.264,0.013-0.285c0-0.646,0.072-1.199,0.449-1.867 c0.169-0.672,0.626-1.215,1.394-1.861c0.558-0.539,1.198-1.051,2.147-1.549c0.946-0.607,2.192-0.957,3.331-1.375 c-0.109,0.947-0.189,1.867-0.479,2.648c-0.073,0.891-0.142,1.697-0.439,2.648c-0.078,0.951-0.185,2.068-0.513,3.129 c-0.108,1.172-0.473,2.566-0.672,4.182c-0.383,0.023-0.784,0.055-1.192,0.09c-0.207,0.154-0.652,0.197-1.133,0.252 c-0.474,0.166-0.978,0.219-1.761,0.4c-0.538,0.084-1.154,0.27-2.041,0.467c-0.383,0.059-0.493,0.262-0.579,0.482 c-0.276,0.23-0.326,0.469-0.326,0.711c0,0.303,0.078,0.566,0.42,0.807c0.121,0.232,0.493,0.453,0.892,0.631 c0.191,0.072,0.595,0.375,1.012,0.406c0.427,0.025,0.584,0.188,0.938,0.188h2.568c-0.141,0-0.5,2.201-0.643,3.381 c-0.369,1.17-0.537,2.146-0.93,3.263c-0.389,1.012-0.583,1.952-0.996,2.894c-0.411,0.932-0.835,1.671-1.283,2.37 c-0.212,0.695-0.67,1.198-1.129,1.63c-0.461,0.318-0.941,0.527-1.415,0.527c-0.556,0-1.318-0.054-1.87-0.251 c-0.535-0.191-1.301-0.284-1.817-0.507c-0.538-0.215-1.048-0.421-1.562-0.515c-0.505-0.195-1.003-0.231-1.479-0.231 c-0.458,0-0.872,0.061-1.247,0.309c-0.155,0.242-0.51,0.512-0.626,0.912c-0.328,0.289-0.405,0.697-0.452,1.002 c-0.049,0.42-0.075,0.678-0.075,0.906c0,0.449,0.065,0.764,0.194,1.053c0.352,0.395,0.742,0.668,0.962,0.908 c0.429,0.25,0.902,0.469,1.388,0.666c0.5,0.092,0.988,0.279,1.493,0.336c0.708,0.16,0.995,0.197,1.667,0.219 c0.248,0.139,0.696,0.148,1.092,0.148c1.523,0,2.964-0.232,4.296-0.703c1.331-0.469,2.36-1.148,3.305-1.924 c0.951-0.896,1.836-1.873,2.438-3.062c0.574-1.178,1.35-2.424,1.833-3.854c0.505-1.434,0.944-3.025,1.123-4.582 c0.408-1.65,0.791-3.342,0.926-5.168c0.435,0,0.954-0.014,1.808-0.025c0.612-0.012,1.508-0.025,2.446-0.037 c0.936-0.02,1.89-0.148,2.844-0.166c0.971-0.02,1.901-0.037,2.788-0.051c0.391-0.01,0.829-0.018,1.236-0.025 c-0.11,0.461-0.211,0.936-0.277,1.439c-0.419,1.262-0.809,2.621-0.969,3.873c-0.401,1.365-0.758,2.607-0.869,3.816 c-0.312,1.209-0.386,2.338-0.386,3.166c0,0.682,0.036,1.338,0.328,1.855c0.073,0.518,0.194,0.988,0.598,1.408 c0.394,0.32,0.833,0.695,1.345,0.926c0.492,0.107,1.061,0.273,1.903,0.273c0.902,0,1.608-0.186,2.561-0.461 c0.951-0.277,1.893-0.707,2.811-1.17c0.934-0.469,1.833-0.967,2.48-1.482c0.178-0.107,0.352-0.221,0.523-0.334 c0.041,0.199,0.094,0.395,0.183,0.574c0.036,0.51,0.103,1,0.206,1.455c0.323,0.451,0.486,0.748,0.9,0.994 c0.411,0.248,0.903,0.424,1.436,0.424c0.491,0,0.934-0.166,1.35-0.279c0.427-0.238,0.6-0.789,0.975-1.451l5.741-11.449h0.422 c-0.315,1-0.406,2.336-0.469,3.316c-0.06,1.105-0.312,2.124-0.312,2.917c0,2.307,0.364,4.028,0.887,5.208 c0.51,1.18,1.322,1.724,1.979,1.724c0.866,0,1.725-0.163,2.346-0.392c0.824-0.123,1.43-0.496,2.203-0.797 c0.607-0.416,1.184-0.739,1.955-1.21c0.559-0.467,1.102-0.925,1.65-1.392l1.256-0.778l-0.426-4.96 C412.419,315.037,411.534,315.781,410.893,316.49z"/><path fill="#4C4C4C" d="M442.525,291.123c1.386,0.082,2.521,0.258,3.827,0.324c1.321,0.178,2.395,0.207,3.439,0.207 c0.391,0,0.772-0.035,0.941-0.223c0.377-0.082,0.727-0.283,0.845-0.525c0.13-0.234,0.442-0.482,0.51-0.746 c0.072-0.365,0.124-0.637,0.124-0.895c0-0.477-0.093-0.926-0.259-1.248c-0.369-0.418-0.848-0.67-1.453-0.861 c-3.167-0.514-6.059-0.824-8.878-1.043c-2.833-0.215-5.362-0.381-7.848-0.381c-1.886,0-3.75,0.125-5.568,0.18 c-1.613,0.045-3.374,0.236-4.874,0.477c-1.482,0.238-2.901,0.529-4.252,0.963c-1.348,0.449-2.382,0.957-3.317,1.635 c-0.938,0.562-1.541,1.422-2.03,2.25c-0.499,0.936-0.855,2.066-0.855,3.273c0.018,0.506,0.127,0.982,0.468,1.416 c0.119,0.307,0.52,0.693,1.011,0.969c0.472,0.27,1.272,0.455,1.983,0.455c0.9,0,1.715-0.186,2.183-0.451 c0.471-0.273,0.67-0.656,1.003-0.951c0.115-0.406,0.407-0.691,0.425-0.957c0.021-0.264,0.031-0.459,0.031-0.48 c0-0.518,0.088-0.998,0.458-1.443c0.149-0.439,0.576-0.734,1.065-1.109c0.476-0.271,1.016-0.514,1.797-0.73 c0.579-0.094,1.389-0.289,2.022-0.467c0.854-0.07,1.492-0.123,2.354-0.273c0.874-0.037,1.522-0.078,2.371-0.213 c-0.907,2.812-1.803,5.391-2.441,7.605c-0.861,2.32-1.456,4.326-2.258,6.215c-0.563,1.893-1.115,3.59-1.635,5.213 c-0.729,1.506-1.199,2.969-1.642,4.375c-0.24,1.41-0.654,2.803-1.058,4.045c-0.165,1.242-0.52,2.611-0.612,3.875 c-0.271,0.402-0.293,0.682-0.293,0.945c0,0.904,0.362,1.58,0.864,1.906c0.521,0.438,1.326,0.648,1.999,0.648 c0.367,0,0.752-0.154,0.928-0.248c0.389-0.195,0.776-0.438,0.949-0.713c0.375-0.383,0.515-0.693,0.866-1.139 c0.14-0.434,0.453-0.791,0.518-1.4c0.364-1.021,0.563-2.271,1.017-3.854c0.444-1.477,0.925-3.125,1.403-4.857 c0.502-1.846,0.991-3.727,1.506-5.658c0.501-1.939,1.215-3.879,1.688-5.818c0.496-2.049,0.744-3.971,1.182-5.756 c0.435-1.908,0.851-3.74,1.009-5.385c1.66,0.145,3.098,0.207,4.507,0.395C439.776,290.738,441.151,290.938,442.525,291.123z"/><path fill="#4C4C4C" d="M491.84,315.766c-0.173,0.285-0.6,0.566-1.021,0.941c-0.422,0.279-0.846,0.527-1.063,0.762 c-0.429,0.242-0.876,0.449-1.301,0.537c-0.429,0.186-0.639,0.223-1.044,0.223c-0.367,0-0.502-0.201-0.811-0.502 c-0.095-0.303-0.142-0.775-0.142-1.416c0-1.025,0.067-2.121,0.438-3.094c0.155-0.967,0.529-1.924,0.92-2.873 c0.194-0.951,0.572-1.9,0.72-2.852c0.362-0.949,0.452-1.906,0.452-2.887c0-0.486-0.033-0.932-0.116-1.203 c-0.07-0.287-0.38-0.525-0.479-0.736c-0.328-0.205-0.437-0.264-0.566-0.301c-0.336-0.141-0.437-0.16-0.752-0.16 c-0.605,0-1.438,0.246-2.096,0.746c-0.874,0.609-1.756,1.184-2.392,2.043c-0.882,0.76-1.745,1.535-2.353,2.471 c-0.852,0.928-1.441,1.828-1.976,2.582l-0.466-0.27c0.493-0.941,1.019-2.068,1.595-3.279c0.784-1.205,1.366-2.441,1.956-3.848 c0.794-1.396,1.372-2.814,1.947-4.268c0.781-1.441,1.32-2.879,1.804-4.305c0.502-1.426,0.937-2.713,1.317-4.084 c0.16-1.262,0.463-2.465,0.463-3.592c0-0.727-0.22-1.412-0.315-1.957c-0.062-0.646-0.169-1.139-0.546-1.582 c-0.378-0.34-0.827-0.74-1.312-0.979c-0.504-0.24-1.06-0.299-1.934-0.299c-1.475,0-2.858,0.449-3.944,1.23 c-1.277,0.902-2.269,1.965-3.183,3.402c-0.693,1.547-1.536,3.104-2.077,5.002c-0.551,1.908-1.039,3.969-1.484,5.979 c-0.438,2.109-0.816,4.24-0.943,6.387c-0.326,2.141-0.43,4.117-0.489,6.041c-0.236,1.584-0.299,3.096-0.321,4.432 c-0.285,0.312-0.583,0.637-0.933,0.986c-0.645,0.758-1.513,1.482-2.421,2.164c-0.874,0.684-1.588,1.197-2.472,1.654 c-0.905,0.348-1.546,0.568-2.358,0.568c-0.607,0-1.357-0.08-1.834-0.475c-0.235-0.279-0.662-0.715-1.019-1.193 c-0.138-0.475-0.455-0.979-0.507-1.506c-0.049-0.641-0.075-1.154-0.075-1.66c0-0.404,0.008-0.75,0.026-1.359 c0.015-0.502,0.049-1.02,0.101-1.545c0.072-0.643,0.352-1.166,0.442-1.812c0.107-0.533,0.452-1.035,0.83-1.5 c0.158-0.463,0.566-0.889,1.026-1.148c0.445-0.266,0.949-0.449,1.484-0.449c0.354,0,0.435,0.172,0.489,0.4 c0.039,0.24,0.057,0.504,0.057,0.92c0,0.232-0.005,0.49-0.018,0.754c-0.012,0.271-0.019,0.527-0.019,0.779 c0,0.682,0.059,1.176,0.391,1.588c0.113,0.309,0.582,0.51,1.388,0.51c0.455,0,0.905-0.059,1.1-0.291 c0.413-0.238,0.812-0.627,0.946-0.947c0.357-0.434,0.458-0.879,0.544-1.363c0.278-0.482,0.322-0.961,0.322-1.455 c0-0.717-0.093-1.406-0.46-1.955c-0.372-0.668-0.576-1.18-1.301-1.645c-0.486-0.469-1.042-0.768-1.645-1.127 c-0.82-0.244-1.458-0.316-2.335-0.316c-0.973,0-1.901,0.201-2.788,0.508c-0.874,0.418-1.5,0.898-2.081,1.445 c-0.795,0.658-1.335,1.367-1.821,2.127c-0.501,0.771-0.946,1.66-1.345,2.584c-0.416,0.809-0.554,1.734-0.644,2.672 c-0.315,0.932-0.362,1.748-0.362,2.643c0,0.312,0.008,0.621,0.024,0.928c-0.661,0.549-1.554,1.172-2.474,1.668 c-0.926,0.508-1.878,0.965-2.845,1.26c-0.97,0.412-1.91,0.5-2.813,0.5c-0.162,0-0.52-0.012-0.868-0.043 c-0.124-0.031-0.26-0.195-0.595-0.273c-0.114-0.191-0.451-0.41-0.569-0.656c-0.326-0.26-0.453-0.555-0.789-0.975 c1.345-0.303,2.421-0.791,3.673-1.457c1.025-0.674,1.978-1.391,2.85-2.156c0.633-0.758,1.416-1.666,1.869-2.592 c0.251-0.932,0.588-1.748,0.588-2.676c0-0.887-0.075-1.633-0.453-2.32c-0.389-0.584-0.822-1.223-1.313-1.701 c-0.51-0.479-1.065-0.791-1.65-1.039c-0.83-0.254-1.486-0.439-2.338-0.439c-0.982,0-1.921,0.217-2.815,0.512 c-0.874,0.422-1.5,0.904-2.291,1.445c-0.585,0.658-1.125,1.363-1.609,2.131c-0.498,0.758-0.933,1.646-1.326,2.564 c-0.378,0.805-0.538,1.727-0.621,2.662c-0.308,0.928-0.352,1.732-0.352,2.607c0,1.203,0.094,2.383,0.492,3.422 c0.418,1.145,0.907,2.105,1.505,2.896c0.804,0.889,1.712,1.578,2.707,2.074c1.001,0.486,2.087,0.725,3.485,0.725 c0.919,0,1.834-0.049,2.721-0.264c0.908-0.215,1.575-0.469,2.452-0.863c0.858-0.291,1.492-0.717,2.332-1.055 c0.601-0.451,1.415-0.9,1.979-1.355c0.131-0.092,0.26-0.191,0.39-0.287c0.209,0.371,0.429,0.721,0.666,1.031 c0.801,0.889,1.706,1.572,2.694,2.068c0.99,0.486,2.065,0.725,3.452,0.725c0.846,0,1.484-0.17,2.335-0.41 c0.631-0.234,1.453-0.521,2.077-0.949c0.785-0.324,1.367-0.777,2.148-1.264c0.568-0.49,1.211-0.992,1.719-1.598 c0.322-0.291,0.027-0.59,1.027-0.893c0,0.055,0,0.115,0,0.168c0,0.66-0.09,1.203-0.066,1.85c0.023,0.535,0.247,1.148,0.322,1.617 c0.074,0.355,0.385,0.777,0.54,1.043c0.367,0.254,0.779,0.436,1.265,0.436c0.191,0,0.568-0.041,0.91-0.238 c0.135-0.191,0.25-0.432,0.57-0.709c0.114-0.283,0.431-0.719,0.552-1.205c0.328-0.48,0.465-1.121,0.858-1.701 c0.568-1.375,1.406-2.623,2.042-3.842c0.878-1.34,1.74-2.391,2.353-3.48c0.85-0.982,1.436-1.76,1.963-2.447 c0.769-0.684,0.988-1.123,1.342-1.215l0.479,0.035c-0.021,0.037-0.088,0.227-0.369,0.484c-0.093,0.262-0.181,0.67-0.51,1.131 c-0.101,0.352-0.435,0.951-0.566,1.469c-0.323,0.516-0.449,1.158-0.543,1.695c-0.32,0.533-0.398,1.18-0.479,1.707 c-0.276,0.645-0.32,1.143-0.32,1.619c0,0.709,0.269,1.438,0.38,2.203c0.105,0.752,0.479,1.576,0.895,2.166 c0.218,0.689,0.915,1.201,1.459,1.65c0.533,0.461,1.138,0.678,2.017,0.678c0.494,0,1.008-0.041,1.767-0.242 c0.52-0.205,1.061-0.441,1.601-0.695c0.524-0.258,1.27-0.531,1.805-0.947c0.518-0.297,1.035-0.701,1.508-1.002 c0.494-0.398,0.949-0.688,1.398-0.967c0.433-0.383,0.626-0.631,0.963-0.857l-0.414-5.787 C493.575,314.137,492.722,315.033,491.84,315.766z M441.644,312.203c0.015-0.461,0.274-0.928,0.323-1.406 c0.049-0.484,0.121-0.967,0.437-1.441c0.097-0.479,0.444-0.922,0.618-1.232c0.377-0.43,0.792-0.699,1.04-0.939 c0.458-0.229,0.985-0.4,1.745-0.4c0.405,0,0.577,0.223,0.928,0.672c0.122,0.453,0.187,0.961,0.187,1.648 c0,0.461-0.096,0.949-0.507,1.438c-0.229,0.488-0.664,0.955-1.389,1.408c-0.515,0.34-1.042,0.744-1.601,1.004 c-0.564,0.254-1.306,0.43-1.803,0.43C441.622,312.994,441.627,312.674,441.644,312.203z M476.448,305.076 c-0.469,1.127-0.915,2.107-1.358,3.051c0.293-1.67,0.388-3.361,0.533-5.182c0.276-0.727,0.339-1.49,0.412-2.26 c0.087-0.889,0.374-1.672,0.465-2.576c0.101-0.904,0.422-1.699,0.533-2.6c0.33-0.799,0.449-1.684,0.806-2.455 c0.985-2.375,1.903-4.234,2.532-5.449c0.83-1.221,1.363-1.889,1.784-1.889c0.165,0,0.466,0.629,0.466,1.67 c0,0.725-0.323,1.889-0.541,3.379c-0.427,1.598-1.205,3.49-1.9,5.689c-0.359,0.691-0.756,1.447-0.965,2.404 c-0.447,0.943-0.895,1.924-1.354,3.047C477.39,302.92,476.927,304.053,476.448,305.076z"/></g></g></svg>